<svg width="406" height="325" viewBox="0 0 406 325" fill="none" xmlns="http://www.w3.org/2000/svg">
<path d="M395.85 223.438H385.7V154.819C385.7 146.758 382.465 139.014 376.755 133.301L313.381 69.8877C307.672 64.1748 299.932 60.9375 291.876 60.9375H263.9V30.4688C263.9 13.6475 250.261 0 233.45 0H30.45C13.6391 0 0 13.6475 0 30.4688V233.594C0 250.415 13.6391 264.062 30.45 264.062H40.6C40.6 297.705 67.8781 325 101.5 325C135.122 325 162.4 297.705 162.4 264.062H243.6C243.6 297.705 270.878 325 304.5 325C338.122 325 365.4 297.705 365.4 264.062H395.85C401.432 264.062 406 259.492 406 253.906V233.594C406 228.008 401.432 223.438 395.85 223.438ZM101.5 294.531C84.6891 294.531 71.05 280.884 71.05 264.062C71.05 247.241 84.6891 233.594 101.5 233.594C118.311 233.594 131.95 247.241 131.95 264.062C131.95 280.884 118.311 294.531 101.5 294.531ZM304.5 294.531C287.689 294.531 274.05 280.884 274.05 264.062C274.05 247.241 287.689 233.594 304.5 233.594C321.311 233.594 334.95 247.241 334.95 264.062C334.95 280.884 321.311 294.531 304.5 294.531ZM355.25 162.5H263.9V91.4062H291.876L355.25 154.819V162.5Z" fill="#96191F"/>
</svg>
